<svg xmlns="http://www.w3.org/2000/svg" viewBox="0 0 15 11">
  <title>Rewind</title>
  <polygon id="BACK-BUTTON" points="15 0 15 11 13.78 11 13.78 9.8 12.43 9.8 12.43 8.56 11.27 8.56 11.27 7.29 10.01 7.29 10.01 6.09 8.8 6.09 8.8 11 7.52 11 7.52 9.8 6.22 9.8 6.22 8.56 4.95 8.56 4.95 7.29 3.76 7.29 3.76 6.09 2.52 6.09 2.52 11 0 11 0 0 2.52 0 2.52 4.92 3.76 4.92 3.76 3.61 4.95 3.61 4.95 2.54 6.22 2.54 6.22 1.27 7.5 1.27 7.5 0 8.8 0 8.8 4.92 10.01 4.92 10.01 3.61 11.27 3.61 11.27 2.54 12.43 2.54 12.43 1.27 13.78 1.27 13.78 0 15 0" style="fill-rule: evenodd"/>
</svg>
